<svg width="20" height="21" viewBox="0 0 20 21" fill="none" xmlns="http://www.w3.org/2000/svg">
<path d="M14.59 6.29118L8 12.8812L4.41 9.30118L3 10.7112L8 15.7112L16 7.71118L14.59 6.29118ZM10 0.711182C4.48 0.711182 0 5.19118 0 10.7112C0 16.2312 4.48 20.7112 10 20.7112C15.52 20.7112 20 16.2312 20 10.7112C20 5.19118 15.52 0.711182 10 0.711182ZM10 18.7112C5.58 18.7112 2 15.1312 2 10.7112C2 6.29118 5.58 2.71118 10 2.71118C14.42 2.71118 18 6.29118 18 10.7112C18 15.1312 14.42 18.7112 10 18.7112Z" fill="#91B83D"/>
</svg>
